<svg xmlns="http://www.w3.org/2000/svg" enable-background="new 0 0 512 512" viewBox="0 0 512 512" id="teacher"><linearGradient id="a" x1="62.015" x2="417.873" y1="510.015" y2="154.158" gradientUnits="userSpaceOnUse"><stop offset="0" stop-color="#5ebce5"></stop><stop offset=".511" stop-color="#b678e6"></stop><stop offset="1" stop-color="#e25b61"></stop></linearGradient><path fill="url(#a)" d="M185.758,152h58.426l-7.166,17.916c-1.479,3.696-5.006,6.084-8.986,6.084h-22.288
	c-8.799,0-16.438-6.262-18.163-14.89L185.758,152z M112,383.898c0,0.017,0.002,0.034,0.002,0.051S112,383.983,112,384v96H32V368
	h64.102C104.868,368,112,375.132,112,383.898z M104,456c0-4.418-3.582-8-8-8H48c-4.418,0-8,3.582-8,8s3.582,8,8,8h48
	C100.418,464,104,460.418,104,456z M104,432c0-4.418-3.582-8-8-8H48c-4.418,0-8,3.582-8,8s3.582,8,8,8h48
	C100.418,440,104,436.418,104,432z M104,408c0-4.418-3.582-8-8-8H48c-4.418,0-8,3.582-8,8s3.582,8,8,8h48
	C100.418,416,104,412.418,104,408z M104,384c0-4.418-3.582-8-8-8H64c-4.418,0-8,3.582-8,8s3.582,8,8,8h32
	C100.418,392,104,388.418,104,384z M160.003,287.795c0.062-2.445,1.24-4.728,3.197-6.195l32-24c3.348-2.511,8.063-2.018,10.82,1.132
	l1.979,2.262v-14.02c-14.365-13.337-24.618-30.712-29.242-50.038l-2.532-0.633c-8.51-2.128-15.75-7.183-20.698-13.995l-9.15,115.905
	l14.989-5.764C160.454,291.087,159.96,289.469,160.003,287.795z M335.774,196.303l-2.532,0.633
	c-4.625,19.326-14.877,36.701-29.242,50.039v14.02l1.979-2.262c2.755-3.149,7.474-3.642,10.82-1.132l32,24
	c1.957,1.467,3.135,3.75,3.197,6.195c0.043,1.674-0.451,3.292-1.363,4.653l14.989,5.764l-9.15-115.905
	C351.524,189.12,344.284,194.175,335.774,196.303z M281.068,97.282C271.99,111.17,256.364,120,239.016,120H192v16h128v-16.526
	C304.521,117.42,290.632,109.459,281.068,97.282z M274.982,169.916c1.479,3.696,5.006,6.084,8.986,6.084h22.288
	c8.799,0,16.438-6.262,18.163-14.89l1.822-9.11h-58.426L274.982,169.916z M288,279.28v-20.207
	c-6.366,3.879-13.229,7.103-20.527,9.536c-0.001,0-0.001,0-0.001,0c-3.698,1.232-7.585,1.849-11.472,1.849
	s-7.773-0.617-11.472-1.849c-7.299-2.433-14.162-5.658-20.528-9.537v20.207l32,36.571L288,279.28z M290.879,321.854l40.229-33.524
	l-17.973-13.479L264,331.006v38.121l25.007-45.012C289.486,323.252,290.12,322.486,290.879,321.854z M168.155,145.569
	c-0.096-0.482-0.136-0.968-0.143-1.451c-1.948,0.352-3.203,1.482-3.821,2.211c-0.736,0.87-1.906,2.719-1.47,5.338l2.091,12.548
	c1.114,6.684,5.422,12.281,11.375,15.141c-0.083-1.439-0.136-2.883-0.157-4.335c-1.938-3.267-3.362-6.89-4.139-10.773
	L168.155,145.569z M193.607,189.777c3.799,1.436,7.894,2.223,12.136,2.223h22.288c10.562,0,19.92-6.336,23.842-16.142L256,165.541
	l4.127,10.318c3.922,9.806,13.28,16.142,23.842,16.142h22.288c4.243,0,8.339-0.787,12.139-2.224
	c-5.743,29.366-26.789,53.923-55.983,63.654c-4.137,1.379-8.692,1.378-12.825,0C220.394,243.699,199.351,219.142,193.607,189.777z
	 M233.84,221.104C239.661,228.13,247.531,232,256,232s16.339-3.87,22.16-10.896c2.819-3.402,2.346-8.446-1.057-11.265
	c-3.402-2.82-8.446-2.345-11.264,1.057c-2.727,3.292-6.222,5.104-9.84,5.104s-7.113-1.812-9.84-5.104
	c-2.818-3.402-7.862-3.875-11.264-1.057C231.494,212.658,231.021,217.702,233.84,221.104z M176,128v-16c0-4.418,3.582-8,8-8h55.016
	c15.743,0,29.405-10.667,33.224-25.94c0.812-3.248,3.56-5.647,6.888-6.012c3.327-0.362,6.531,1.38,8.028,4.374l1.689,3.378
	C296.309,94.728,311.312,104,328,104c4.418,0,8,3.582,8,8v16h6.784c3.353,0,6.611,0.741,9.569,2.125l-0.773-9.793
	c-1.903-24.119-12.738-46.446-30.507-62.867C303.305,41.043,280.194,32,256,32s-47.305,9.043-65.073,25.464
	c-17.769,16.421-28.604,38.748-30.507,62.867l-0.773,9.793c2.958-1.383,6.216-2.125,9.569-2.125H176z M349.278,151.666
	c0.437-2.619-0.733-4.468-1.47-5.337c-0.618-0.728-1.873-1.859-3.821-2.211c-0.007,0.484-0.047,0.969-0.143,1.451l-3.735,18.679
	c-0.777,3.883-2.202,7.506-4.139,10.773c-0.021,1.451-0.075,2.896-0.157,4.335c5.953-2.86,10.26-8.457,11.374-15.141
	L349.278,151.666z M143.898,368H208v112h-80v-96c0-0.017-0.002-0.034-0.002-0.051s0.002-0.034,0.002-0.051
	C128,375.132,135.132,368,143.898,368z M200,456c0-4.418-3.582-8-8-8h-48c-4.418,0-8,3.582-8,8s3.582,8,8,8h48
	C196.418,464,200,460.418,200,456z M200,432c0-4.418-3.582-8-8-8h-48c-4.418,0-8,3.582-8,8s3.582,8,8,8h48
	C196.418,440,200,436.418,200,432z M152,384c0,4.418,3.582,8,8,8h32c4.418,0,8-3.582,8-8s-3.582-8-8-8h-32
	C155.582,376,152,379.582,152,384z M144,400c-4.418,0-8,3.582-8,8s3.582,8,8,8h48c4.418,0,8-3.582,8-8s-3.582-8-8-8H144z
	 M191.868,318.303L203.1,352H216c2.039,0,3.894,0.769,5.306,2.025l-11.575-20.835L191.868,318.303z M224,480h4.9l-4.9-14.702V480z
	 M248,331.006l-49.135-56.154l-17.973,13.479l40.229,33.524c0.759,0.631,1.393,1.398,1.872,2.26L248,369.127V331.006z
	 M302.269,333.19l-39.275,70.695c-1.411,2.54-4.088,4.115-6.993,4.115s-5.582-1.575-6.993-4.115l-25.129-45.232
	C223.953,359.092,224,359.54,224,360v54.701L245.766,480h20.467l53.899-161.697L302.269,333.19z M392,416.014V353.1
	c0-16.51-10.356-31.585-25.771-37.513l-25.106-9.655L283.1,480h86.434c-0.99-2.659-1.533-5.534-1.533-8.533v-30.934
	C368,427.184,378.719,416.299,392,416.014z M186.234,352l-15.356-46.068l-25.106,9.655C130.356,321.514,120,336.59,120,353.1v9.692
	c5.849-6.614,14.396-10.792,23.898-10.792H186.234z M491.451,256.783c-3.984-1.904-8.762-0.22-10.668,3.766L398.785,432h-6.251
	c-4.705,0-8.533,3.828-8.533,8.533v30.934c0,4.705,3.828,8.533,8.533,8.533h23.086c0.21,0,0.381-0.171,0.381-0.381v-46.532
	l79.217-165.635C497.123,263.466,495.438,258.689,491.451,256.783z"></path></svg>